<mxfile host="app.diagrams.net" agent="Mozilla/5.0 (Windows NT 10.0; Win64; x64) AppleWebKit/537.36 (KHTML, like Gecko) Chrome/134.0.0.0 Safari/537.36" version="26.1.1">
  <diagram name="Page-1" id="2H58MO90Xa9M6sHunfLu">
    <mxGraphModel dx="880" dy="508" grid="1" gridSize="10" guides="1" tooltips="1" connect="1" arrows="1" fold="1" page="1" pageScale="1" pageWidth="850" pageHeight="1100" math="0" shadow="0">
      <root>
        <mxCell id="0" />
        <mxCell id="1" parent="0" />
        <mxCell id="D3Ak_9p2HrBAHhJlQx-v-1" value="&lt;b&gt;&lt;font&gt;Data Flow Diagram&lt;/font&gt;&lt;/b&gt;" style="text;html=1;align=center;verticalAlign=middle;whiteSpace=wrap;rounded=0;fontSize=29;" parent="1" vertex="1">
          <mxGeometry width="290" height="80" as="geometry" />
        </mxCell>
        <mxCell id="D3Ak_9p2HrBAHhJlQx-v-3" value="" style="rounded=0;whiteSpace=wrap;html=1;fontColor=default;fillColor=none;dashed=1;" parent="1" vertex="1">
          <mxGeometry x="45" y="130" width="205" height="470" as="geometry" />
        </mxCell>
        <mxCell id="D3Ak_9p2HrBAHhJlQx-v-4" value="&lt;font style=&quot;font-size: 18px;&quot;&gt;Sources&lt;/font&gt;" style="rounded=1;whiteSpace=wrap;html=1;strokeColor=none;" parent="1" vertex="1">
          <mxGeometry x="80" y="100" width="120" height="60" as="geometry" />
        </mxCell>
        <mxCell id="D3Ak_9p2HrBAHhJlQx-v-7" value="" style="rounded=1;whiteSpace=wrap;html=1;fillColor=none;strokeColor=#d6b656;shadow=0;" parent="1" vertex="1">
          <mxGeometry x="310" y="180" width="180" height="420" as="geometry" />
        </mxCell>
        <mxCell id="D3Ak_9p2HrBAHhJlQx-v-8" value="&lt;b&gt;&lt;font style=&quot;font-size: 14px;&quot;&gt;Bronze Layer&lt;/font&gt;&lt;/b&gt;" style="rounded=1;whiteSpace=wrap;html=1;strokeColor=#d6b656;fillColor=#fff2cc;" parent="1" vertex="1">
          <mxGeometry x="310" y="120" width="170" height="40" as="geometry" />
        </mxCell>
        <mxCell id="D3Ak_9p2HrBAHhJlQx-v-24" style="edgeStyle=orthogonalEdgeStyle;rounded=0;orthogonalLoop=1;jettySize=auto;html=1;entryX=0;entryY=0.5;entryDx=0;entryDy=0;" parent="1" source="D3Ak_9p2HrBAHhJlQx-v-9" target="D3Ak_9p2HrBAHhJlQx-v-12" edge="1">
          <mxGeometry relative="1" as="geometry">
            <Array as="points">
              <mxPoint x="260" y="290" />
              <mxPoint x="260" y="340" />
            </Array>
          </mxGeometry>
        </mxCell>
        <mxCell id="D3Ak_9p2HrBAHhJlQx-v-25" style="edgeStyle=orthogonalEdgeStyle;rounded=0;orthogonalLoop=1;jettySize=auto;html=1;entryX=0;entryY=0.75;entryDx=0;entryDy=0;" parent="1" source="D3Ak_9p2HrBAHhJlQx-v-9" target="D3Ak_9p2HrBAHhJlQx-v-10" edge="1">
          <mxGeometry relative="1" as="geometry">
            <Array as="points">
              <mxPoint x="260" y="290" />
              <mxPoint x="260" y="250" />
            </Array>
          </mxGeometry>
        </mxCell>
        <mxCell id="D3Ak_9p2HrBAHhJlQx-v-26" style="edgeStyle=orthogonalEdgeStyle;rounded=0;orthogonalLoop=1;jettySize=auto;html=1;entryX=0;entryY=0.5;entryDx=0;entryDy=0;" parent="1" source="D3Ak_9p2HrBAHhJlQx-v-9" target="D3Ak_9p2HrBAHhJlQx-v-11" edge="1">
          <mxGeometry relative="1" as="geometry" />
        </mxCell>
        <mxCell id="D3Ak_9p2HrBAHhJlQx-v-9" value="" style="image;aspect=fixed;html=1;points=[];align=center;fontSize=12;image=img/lib/azure2/general/Folder_Blank.svg;" parent="1" vertex="1">
          <mxGeometry x="110.5" y="262" width="69" height="56.00000000000001" as="geometry" />
        </mxCell>
        <mxCell id="7XgdglSOMPtqffUQGnYG-9" style="edgeStyle=orthogonalEdgeStyle;rounded=0;orthogonalLoop=1;jettySize=auto;html=1;entryX=0;entryY=0.5;entryDx=0;entryDy=0;" parent="1" source="D3Ak_9p2HrBAHhJlQx-v-10" target="7XgdglSOMPtqffUQGnYG-8" edge="1">
          <mxGeometry relative="1" as="geometry" />
        </mxCell>
        <mxCell id="D3Ak_9p2HrBAHhJlQx-v-10" value="&lt;b&gt;&lt;font style=&quot;font-size: 14px;&quot;&gt;crm_sales_details&lt;/font&gt;&lt;/b&gt;" style="rounded=1;whiteSpace=wrap;html=1;strokeColor=#d6b656;fillColor=#fff2cc;" parent="1" vertex="1">
          <mxGeometry x="325" y="220" width="150" height="40" as="geometry" />
        </mxCell>
        <mxCell id="7XgdglSOMPtqffUQGnYG-10" style="edgeStyle=orthogonalEdgeStyle;rounded=0;orthogonalLoop=1;jettySize=auto;html=1;entryX=0;entryY=0.5;entryDx=0;entryDy=0;" parent="1" source="D3Ak_9p2HrBAHhJlQx-v-11" target="7XgdglSOMPtqffUQGnYG-7" edge="1">
          <mxGeometry relative="1" as="geometry" />
        </mxCell>
        <mxCell id="D3Ak_9p2HrBAHhJlQx-v-11" value="&lt;b&gt;&lt;font style=&quot;font-size: 14px;&quot;&gt;crm_cust_info&lt;/font&gt;&lt;/b&gt;" style="rounded=1;whiteSpace=wrap;html=1;strokeColor=#d6b656;fillColor=#fff2cc;" parent="1" vertex="1">
          <mxGeometry x="325" y="270" width="150" height="40" as="geometry" />
        </mxCell>
        <mxCell id="7XgdglSOMPtqffUQGnYG-11" style="edgeStyle=orthogonalEdgeStyle;rounded=0;orthogonalLoop=1;jettySize=auto;html=1;entryX=0;entryY=0.5;entryDx=0;entryDy=0;" parent="1" source="D3Ak_9p2HrBAHhJlQx-v-12" target="7XgdglSOMPtqffUQGnYG-6" edge="1">
          <mxGeometry relative="1" as="geometry" />
        </mxCell>
        <mxCell id="D3Ak_9p2HrBAHhJlQx-v-12" value="&lt;b&gt;&lt;font style=&quot;font-size: 14px;&quot;&gt;crm_prd_info&lt;/font&gt;&lt;/b&gt;" style="rounded=1;whiteSpace=wrap;html=1;strokeColor=#d6b656;fillColor=#fff2cc;" parent="1" vertex="1">
          <mxGeometry x="325" y="320" width="150" height="40" as="geometry" />
        </mxCell>
        <mxCell id="7XgdglSOMPtqffUQGnYG-12" style="edgeStyle=orthogonalEdgeStyle;rounded=0;orthogonalLoop=1;jettySize=auto;html=1;entryX=0;entryY=0.5;entryDx=0;entryDy=0;" parent="1" source="D3Ak_9p2HrBAHhJlQx-v-13" target="7XgdglSOMPtqffUQGnYG-3" edge="1">
          <mxGeometry relative="1" as="geometry" />
        </mxCell>
        <mxCell id="D3Ak_9p2HrBAHhJlQx-v-13" value="&lt;b&gt;&lt;font style=&quot;font-size: 14px;&quot;&gt;erp_cust_az12&lt;/font&gt;&lt;/b&gt;" style="rounded=1;whiteSpace=wrap;html=1;strokeColor=#d6b656;fillColor=#fff2cc;" parent="1" vertex="1">
          <mxGeometry x="330" y="400" width="150" height="40" as="geometry" />
        </mxCell>
        <mxCell id="7XgdglSOMPtqffUQGnYG-13" style="edgeStyle=orthogonalEdgeStyle;rounded=0;orthogonalLoop=1;jettySize=auto;html=1;" parent="1" source="D3Ak_9p2HrBAHhJlQx-v-14" target="7XgdglSOMPtqffUQGnYG-4" edge="1">
          <mxGeometry relative="1" as="geometry" />
        </mxCell>
        <mxCell id="D3Ak_9p2HrBAHhJlQx-v-14" value="&lt;b&gt;&lt;font style=&quot;font-size: 14px;&quot;&gt;erp_loc_a101&lt;/font&gt;&lt;/b&gt;" style="rounded=1;whiteSpace=wrap;html=1;strokeColor=#d6b656;fillColor=#fff2cc;" parent="1" vertex="1">
          <mxGeometry x="330" y="450" width="150" height="40" as="geometry" />
        </mxCell>
        <mxCell id="7XgdglSOMPtqffUQGnYG-14" value="" style="edgeStyle=orthogonalEdgeStyle;rounded=0;orthogonalLoop=1;jettySize=auto;html=1;" parent="1" source="D3Ak_9p2HrBAHhJlQx-v-15" target="7XgdglSOMPtqffUQGnYG-5" edge="1">
          <mxGeometry relative="1" as="geometry" />
        </mxCell>
        <mxCell id="D3Ak_9p2HrBAHhJlQx-v-15" value="&lt;b&gt;&lt;font style=&quot;font-size: 14px;&quot;&gt;erp_px_cat_g1&lt;/font&gt;&lt;/b&gt;" style="rounded=1;whiteSpace=wrap;html=1;strokeColor=#d6b656;fillColor=#fff2cc;" parent="1" vertex="1">
          <mxGeometry x="330" y="500" width="150" height="40" as="geometry" />
        </mxCell>
        <mxCell id="D3Ak_9p2HrBAHhJlQx-v-27" style="edgeStyle=orthogonalEdgeStyle;rounded=0;orthogonalLoop=1;jettySize=auto;html=1;entryX=0;entryY=0.75;entryDx=0;entryDy=0;" parent="1" source="D3Ak_9p2HrBAHhJlQx-v-16" target="D3Ak_9p2HrBAHhJlQx-v-14" edge="1">
          <mxGeometry relative="1" as="geometry" />
        </mxCell>
        <mxCell id="D3Ak_9p2HrBAHhJlQx-v-28" style="edgeStyle=orthogonalEdgeStyle;rounded=0;orthogonalLoop=1;jettySize=auto;html=1;entryX=0;entryY=0.5;entryDx=0;entryDy=0;" parent="1" source="D3Ak_9p2HrBAHhJlQx-v-16" target="D3Ak_9p2HrBAHhJlQx-v-13" edge="1">
          <mxGeometry relative="1" as="geometry">
            <Array as="points">
              <mxPoint x="260" y="480" />
              <mxPoint x="260" y="420" />
            </Array>
          </mxGeometry>
        </mxCell>
        <mxCell id="D3Ak_9p2HrBAHhJlQx-v-29" style="edgeStyle=orthogonalEdgeStyle;rounded=0;orthogonalLoop=1;jettySize=auto;html=1;entryX=0;entryY=0.75;entryDx=0;entryDy=0;" parent="1" source="D3Ak_9p2HrBAHhJlQx-v-16" target="D3Ak_9p2HrBAHhJlQx-v-15" edge="1">
          <mxGeometry relative="1" as="geometry">
            <Array as="points">
              <mxPoint x="260" y="480" />
              <mxPoint x="260" y="530" />
            </Array>
          </mxGeometry>
        </mxCell>
        <mxCell id="D3Ak_9p2HrBAHhJlQx-v-16" value="" style="image;aspect=fixed;html=1;points=[];align=center;fontSize=12;image=img/lib/azure2/general/Folder_Blank.svg;" parent="1" vertex="1">
          <mxGeometry x="117.5" y="452" width="69" height="56.00000000000001" as="geometry" />
        </mxCell>
        <mxCell id="D3Ak_9p2HrBAHhJlQx-v-17" value="&lt;b&gt;CRM&lt;/b&gt;" style="text;html=1;align=center;verticalAlign=middle;whiteSpace=wrap;rounded=0;" parent="1" vertex="1">
          <mxGeometry x="117.5" y="318" width="60" height="30" as="geometry" />
        </mxCell>
        <mxCell id="D3Ak_9p2HrBAHhJlQx-v-30" value="&lt;b&gt;ERP&lt;/b&gt;" style="text;html=1;align=center;verticalAlign=middle;whiteSpace=wrap;rounded=0;" parent="1" vertex="1">
          <mxGeometry x="119.5" y="510" width="60" height="30" as="geometry" />
        </mxCell>
        <mxCell id="7XgdglSOMPtqffUQGnYG-1" value="&lt;b&gt;&lt;font style=&quot;font-size: 14px;&quot;&gt;Silver Layer&lt;/font&gt;&lt;/b&gt;" style="rounded=1;whiteSpace=wrap;html=1;strokeColor=#666666;fillColor=#f5f5f5;fontColor=#333333;" parent="1" vertex="1">
          <mxGeometry x="540" y="120" width="170" height="40" as="geometry" />
        </mxCell>
        <mxCell id="7XgdglSOMPtqffUQGnYG-2" value="" style="rounded=1;whiteSpace=wrap;html=1;fillColor=none;strokeColor=#666666;shadow=0;fontColor=#333333;" parent="1" vertex="1">
          <mxGeometry x="530" y="180" width="180" height="420" as="geometry" />
        </mxCell>
        <mxCell id="7XgdglSOMPtqffUQGnYG-3" value="&lt;b&gt;&lt;font style=&quot;font-size: 14px;&quot;&gt;erp_cust_az12&lt;/font&gt;&lt;/b&gt;" style="rounded=1;whiteSpace=wrap;html=1;strokeColor=#666666;fillColor=#f5f5f5;fontColor=#333333;" parent="1" vertex="1">
          <mxGeometry x="550" y="400" width="150" height="40" as="geometry" />
        </mxCell>
        <mxCell id="7XgdglSOMPtqffUQGnYG-4" value="&lt;b&gt;&lt;font style=&quot;font-size: 14px;&quot;&gt;erp_loc_a101&lt;/font&gt;&lt;/b&gt;" style="rounded=1;whiteSpace=wrap;html=1;strokeColor=#666666;fillColor=#f5f5f5;fontColor=#333333;" parent="1" vertex="1">
          <mxGeometry x="550" y="450" width="150" height="40" as="geometry" />
        </mxCell>
        <mxCell id="7XgdglSOMPtqffUQGnYG-5" value="&lt;b&gt;&lt;font style=&quot;font-size: 14px;&quot;&gt;erp_px_cat_g1&lt;/font&gt;&lt;/b&gt;" style="rounded=1;whiteSpace=wrap;html=1;strokeColor=#666666;fillColor=#f5f5f5;fontColor=#333333;" parent="1" vertex="1">
          <mxGeometry x="550" y="500" width="150" height="40" as="geometry" />
        </mxCell>
        <mxCell id="7XgdglSOMPtqffUQGnYG-6" value="&lt;b&gt;&lt;font style=&quot;font-size: 14px;&quot;&gt;crm_prd_info&lt;/font&gt;&lt;/b&gt;" style="rounded=1;whiteSpace=wrap;html=1;strokeColor=#666666;fillColor=#f5f5f5;fontColor=#333333;" parent="1" vertex="1">
          <mxGeometry x="545" y="320" width="150" height="40" as="geometry" />
        </mxCell>
        <mxCell id="7XgdglSOMPtqffUQGnYG-7" value="&lt;b&gt;&lt;font style=&quot;font-size: 14px;&quot;&gt;crm_cust_info&lt;/font&gt;&lt;/b&gt;" style="rounded=1;whiteSpace=wrap;html=1;strokeColor=#666666;fillColor=#f5f5f5;fontColor=#333333;" parent="1" vertex="1">
          <mxGeometry x="545" y="270" width="150" height="40" as="geometry" />
        </mxCell>
        <mxCell id="7XgdglSOMPtqffUQGnYG-8" value="&lt;b&gt;&lt;font style=&quot;font-size: 14px;&quot;&gt;crm_sales_details&lt;/font&gt;&lt;/b&gt;" style="rounded=1;whiteSpace=wrap;html=1;strokeColor=#666666;fillColor=#f5f5f5;fontColor=#333333;" parent="1" vertex="1">
          <mxGeometry x="545" y="220" width="150" height="40" as="geometry" />
        </mxCell>
        <mxCell id="z3Fl-VxLQaWBwaiBo_N1-1" value="&lt;b&gt;&lt;font style=&quot;font-size: 14px;&quot;&gt;Gold Layer&lt;/font&gt;&lt;/b&gt;" style="rounded=1;whiteSpace=wrap;html=1;strokeColor=#36393d;fillColor=#ffff88;" vertex="1" parent="1">
          <mxGeometry x="780" y="120" width="170" height="40" as="geometry" />
        </mxCell>
        <mxCell id="z3Fl-VxLQaWBwaiBo_N1-2" value="" style="rounded=1;whiteSpace=wrap;html=1;fillColor=none;strokeColor=#36393d;shadow=0;" vertex="1" parent="1">
          <mxGeometry x="770" y="180" width="180" height="420" as="geometry" />
        </mxCell>
        <mxCell id="z3Fl-VxLQaWBwaiBo_N1-6" value="&lt;b&gt;&lt;font style=&quot;font-size: 14px;&quot;&gt;dim_products&lt;/font&gt;&lt;/b&gt;" style="rounded=1;whiteSpace=wrap;html=1;strokeColor=#36393d;fillColor=#ffff88;" vertex="1" parent="1">
          <mxGeometry x="785" y="395" width="150" height="40" as="geometry" />
        </mxCell>
        <mxCell id="z3Fl-VxLQaWBwaiBo_N1-7" value="&lt;b&gt;&lt;font style=&quot;font-size: 14px;&quot;&gt;dim_customers&lt;/font&gt;&lt;/b&gt;" style="rounded=1;whiteSpace=wrap;html=1;strokeColor=#36393d;fillColor=#ffff88;" vertex="1" parent="1">
          <mxGeometry x="785" y="308" width="150" height="40" as="geometry" />
        </mxCell>
        <mxCell id="z3Fl-VxLQaWBwaiBo_N1-8" value="&lt;b&gt;&lt;font style=&quot;font-size: 14px;&quot;&gt;fact_sales&lt;/font&gt;&lt;/b&gt;" style="rounded=1;whiteSpace=wrap;html=1;strokeColor=#36393d;fillColor=#ffff88;" vertex="1" parent="1">
          <mxGeometry x="790" y="230" width="150" height="40" as="geometry" />
        </mxCell>
        <mxCell id="z3Fl-VxLQaWBwaiBo_N1-9" value="" style="endArrow=classic;html=1;rounded=0;exitX=1;exitY=0.75;exitDx=0;exitDy=0;entryX=0;entryY=0.5;entryDx=0;entryDy=0;" edge="1" parent="1">
          <mxGeometry width="50" height="50" relative="1" as="geometry">
            <mxPoint x="695" y="239.5" as="sourcePoint" />
            <mxPoint x="790" y="239.5" as="targetPoint" />
          </mxGeometry>
        </mxCell>
        <mxCell id="z3Fl-VxLQaWBwaiBo_N1-10" value="" style="endArrow=classic;html=1;rounded=0;exitX=1;exitY=0.5;exitDx=0;exitDy=0;entryX=0;entryY=0.5;entryDx=0;entryDy=0;jumpStyle=gap;" edge="1" parent="1" source="7XgdglSOMPtqffUQGnYG-7" target="z3Fl-VxLQaWBwaiBo_N1-7">
          <mxGeometry width="50" height="50" relative="1" as="geometry">
            <mxPoint x="610" y="390" as="sourcePoint" />
            <mxPoint x="660" y="340" as="targetPoint" />
          </mxGeometry>
        </mxCell>
        <mxCell id="z3Fl-VxLQaWBwaiBo_N1-11" value="" style="endArrow=classic;html=1;rounded=0;exitX=1;exitY=0.5;exitDx=0;exitDy=0;jumpStyle=gap;" edge="1" parent="1" source="7XgdglSOMPtqffUQGnYG-3">
          <mxGeometry width="50" height="50" relative="1" as="geometry">
            <mxPoint x="735" y="390" as="sourcePoint" />
            <mxPoint x="785" y="340" as="targetPoint" />
          </mxGeometry>
        </mxCell>
        <mxCell id="z3Fl-VxLQaWBwaiBo_N1-13" value="" style="endArrow=classic;html=1;rounded=0;exitX=1;exitY=0.75;exitDx=0;exitDy=0;entryX=0;entryY=0.75;entryDx=0;entryDy=0;jumpStyle=gap;" edge="1" parent="1" source="7XgdglSOMPtqffUQGnYG-4" target="z3Fl-VxLQaWBwaiBo_N1-7">
          <mxGeometry width="50" height="50" relative="1" as="geometry">
            <mxPoint x="610" y="390" as="sourcePoint" />
            <mxPoint x="660" y="340" as="targetPoint" />
          </mxGeometry>
        </mxCell>
        <mxCell id="z3Fl-VxLQaWBwaiBo_N1-14" value="" style="endArrow=classic;html=1;rounded=0;exitX=1;exitY=0.75;exitDx=0;exitDy=0;entryX=0;entryY=0.5;entryDx=0;entryDy=0;jumpStyle=gap;" edge="1" parent="1" source="7XgdglSOMPtqffUQGnYG-6" target="z3Fl-VxLQaWBwaiBo_N1-6">
          <mxGeometry width="50" height="50" relative="1" as="geometry">
            <mxPoint x="610" y="390" as="sourcePoint" />
            <mxPoint x="660" y="340" as="targetPoint" />
          </mxGeometry>
        </mxCell>
        <mxCell id="z3Fl-VxLQaWBwaiBo_N1-15" value="" style="endArrow=classic;html=1;rounded=0;entryX=0;entryY=0.5;entryDx=0;entryDy=0;exitX=1;exitY=0.5;exitDx=0;exitDy=0;jumpStyle=gap;" edge="1" parent="1" source="7XgdglSOMPtqffUQGnYG-5" target="z3Fl-VxLQaWBwaiBo_N1-6">
          <mxGeometry width="50" height="50" relative="1" as="geometry">
            <mxPoint x="610" y="390" as="sourcePoint" />
            <mxPoint x="660" y="340" as="targetPoint" />
          </mxGeometry>
        </mxCell>
      </root>
    </mxGraphModel>
  </diagram>
</mxfile>
